# xmcd
#
# Track frame offsets: 
#        150
#        11428
#        22283
#        32951
#        43484
#        55488
#        63914
#        73380
#        82028
#        93552
#        106611
#        117024
#        129552
#        140184
#        151901
#        162950
#        175403
#        186374
#
# Disc length: 2636 seconds
#
# Revision: 0
# Processed by: cddbd v1.5.2PL0 Copyright (c) Steve Scherf et al.
# Submitted via: ExactAudioCopy v1.1
#
DISCID=0b0a4a12
DTITLE=George Jones - George Jone Vol. 2_6 Classic Albums Plus_CD4
DYEAR=2014
DGENRE=Country
TTITLE0=They'll Never Take Her Love From Me
TTITLE1=Masnion On The Hill
TTITLE2=Take These Chains From My Heart
TTITLE3=Bubbles In My Beer
TTITLE4=Faded Love
TTITLE5=Roly Poly
TTITLE6=Trouble In My Mind
TTITLE7=Take Me Back To Tulsa
TTITLE8=The Warm Red Wine
TTITLE9=Time Changes Everything
TTITLE10=Worried Mind
TTITLE11=San Antonio Rose
TTITLE12=Steel Guitar Rag
TTITLE13=Big Beaver
TTITLE14=Not What I Had In Mind
TTITLE15=I Saw Me
TTITLE16=Lonely Christmas Call
TTITLE17=My Mom And Santa Claus
EXTD=
EXTT0=
EXTT1=
EXTT2=
EXTT3=
EXTT4=
EXTT5=
EXTT6=
EXTT7=
EXTT8=
EXTT9=
EXTT10=
EXTT11=
EXTT12=
EXTT13=
EXTT14=
EXTT15=
EXTT16=
EXTT17=
PLAYORDER=
